:SAMPLES-PER-SECOND 30
:FULLY-SPECIFIED
:DEGREES
409
root  -0.243567 34.1746 20.6303 5.96888 31.0973 -2.65725
LeftUpLeg  -5.959 10.3803 7.644
LeftLeg  9.15111 12.0708 1.14605
LeftFoot  1.78486 -0.00521462 0.334753
LeftToes  -22.2726 1.92152e-006 4.03786e-008
Spine  1.43639 -0.496188 1.01959
Spine1  2.80086 -1.44518 2.4779
RightShoulder  0.0557775 6.0454 9.54188
RightArm  -49.1344 -31.1233 74.9727
RightForeArm  42.8466 1.13633 0.195757
RightHand  0.124203 -20.57 -0.314357
LeftShoulder1  0.018792 1.57738 -8.82204
LeftArm  -17.4711 12.3591 -70.5537
LeftForeArm  22.4249 -25.3118 -4.77693
LeftHand  0.178647 4.2303 4.45692
HEad  -8.5961 -15.5907 0.451894
RightUpLeg  -12.2526 -9.10637 -0.172444
RightLeg  9.26126 6.72691 0.657534
RightFoot  3.06681 0.00504753 0.340557
RightToes  -30.407 -0.146733 -0.254785
410
root  -0.129298 34.1973 20.565 6.10292 32.0754 -2.67123
LeftUpLeg  -6.03104 10.2299 7.41443
LeftLeg  8.46986 11.3702 0.945114
LeftFoot  2.02564 -0.00691736 0.363527
LeftToes  -22.103 1.92152e-006 4.03786e-008
Spine  1.47742 -0.808889 1.06228
Spine1  2.87393 -2.0818 2.58548
RightShoulder  0.045967 5.61324 9.46302
RightArm  -49.6075 -33.1239 76.2552
RightForeArm  42.9496 2.93101 0.510254
RightHand  0.0016087 -17.986 0.35971
LeftShoulder1  0.0184433 1.67164 -8.99195
LeftArm  -16.4752 11.238 -70.6035
LeftForeArm  22.2239 -27.3074 -5.21678
LeftHand  0.179925 4.07523 4.67601
HEad  -9.33996 -15.1397 0.624511
RightUpLeg  -12.0387 -8.37142 -0.465284
RightLeg  8.71853 5.02012 0.443504
RightFoot  3.4982 0.008091 0.285466
RightToes  -30.6375 -0.148336 -0.256373
411
root  -0.00663786 34.2145 20.494 6.17846 32.5736 -2.56074
LeftUpLeg  -6.19554 10.2822 7.08489
LeftLeg  8.53036 10.8363 0.912689
LeftFoot  1.89522 -0.00574732 0.321947
LeftToes  -21.6856 1.92152e-006 4.03786e-008
Spine  1.55617 -0.980537 1.06655
Spine1  3.01958 -2.41565 2.58586
RightShoulder  0.0391589 5.26748 9.28492
RightArm  -49.1186 -34.2344 76.9849
RightForeArm  41.8288 5.17348 0.906618
RightHand  0.16922 -15.9566 -0.837001
LeftShoulder1  0.0183547 1.70477 -9.05771
LeftArm  -15.6728 10.3052 -70.8054
LeftForeArm  21.9626 -28.4365 -5.47293
LeftHand  0.184414 3.99648 5.0317
HEad  -9.76902 -14.6037 0.654186
RightUpLeg  -11.8866 -8.23592 -0.825415
RightLeg  8.47482 4.35443 0.366308
RightFoot  3.77273 0.00890928 0.26568
RightToes  -30.7828 -0.149609 -0.257763
412
root  0.124483 34.2222 20.4113 6.1143 32.5115 -2.44785
LeftUpLeg  -6.18599 10.4565 6.76587
LeftLeg  8.82667 10.6239 0.949989
LeftFoot  1.56122 -0.00405594 0.255047
LeftToes  -21.3432 1.92152e-006 4.03786e-008
Spine  1.63941 -0.953373 1.03382
Spine1  3.17562 -2.33075 2.48679
RightShoulder  0.0334876 4.80042 8.9386
RightArm  -46.8126 -34.2387 77.1851
RightForeArm  40.6089 7.28789 1.28335
RightHand  0.481027 -14.7402 -3.34616
LeftShoulder1  0.0187284 1.54944 -8.93929
LeftArm  -15.0223 9.6684 -71.0822
LeftForeArm  21.8414 -28.7026 -5.5341
LeftHand  0.183515 3.93297 5.04843
HEad  -9.55311 -14.1054 0.53243
RightUpLeg  -11.7747 -8.23938 -1.19399
RightLeg  8.47297 4.37643 0.368008
RightFoot  3.93226 0.00754014 0.280582
RightToes  -30.81 -0.150661 -0.259104
413
root  0.265555 34.2166 20.3341 5.97438 32.1305 -2.42162
LeftUpLeg  -6.0827 10.6575 6.51099
LeftLeg  9.19796 10.6837 1.02465
LeftFoot  1.08097 -0.00157723 0.167185
LeftToes  -20.9638 1.92152e-006 4.03786e-008
Spine  1.68965 -0.89124 1.00256
Spine1  3.26718 -2.17703 2.38536
RightShoulder  0.0330808 4.53134 8.68386
RightArm  -44.4028 -33.1221 76.5145
RightForeArm  40.504 8.8503 1.5632
RightHand  0.713751 -13.6911 -5.56763
LeftShoulder1  0.0197667 1.33551 -8.91405
LeftArm  -14.553 9.36854 -71.1846
LeftForeArm  21.96 -28.2328 -5.4263
LeftHand  0.180005 3.90568 4.88406
HEad  -8.98975 -13.5713 0.298797
RightUpLeg  -11.6516 -8.06916 -1.51712
RightLeg  8.46651 4.58216 0.384704
RightFoot  4.09998 0.00534633 0.308982
RightToes  -31.1336 -0.151659 -0.260386
414
root  0.403625 34.2039 20.2618 5.92481 31.5311 -2.33561
LeftUpLeg  -6.00134 10.8449 6.183
LeftLeg  9.58703 11.0184 1.13142
LeftFoot  0.579395 -0.000376963 0.0745456
LeftToes  -20.5074 1.92152e-006 4.03786e-008
Spine  1.72508 -0.824228 0.952427
Spine1  3.32913 -2.0187 2.24392
RightShoulder  0.0378624 4.42034 8.59972
RightArm  -41.7808 -31.1346 75.1264
RightForeArm  39.6242 10.3731 1.83933
RightHand  0.779037 -13.2124 -6.34592
LeftShoulder1  0.0216721 1.2075 -8.98987
LeftArm  -13.9742 9.15608 -71.1258
LeftForeArm  22.1154 -26.888 -5.12302
LeftHand  0.176658 3.97874 4.70954
HEad  -8.50111 -13.0769 0.0339313
RightUpLeg  -11.6799 -7.80378 -1.86615
RightLeg  8.60285 4.88717 0.421884
RightFoot  4.17207 0.00317215 0.33774
RightToes  -31.3269 -0.152772 -0.261602
415
root  0.533522 34.1897 20.1946 5.97277 30.8842 -2.23756
LeftUpLeg  -5.96393 10.6903 5.81773
LeftLeg  9.88997 11.7665 1.26965
LeftFoot  0.144858 1.39687e-005 -0.0110595
LeftToes  -20.0208 1.92152e-006 4.03786e-008
Spine  1.72364 -0.769871 0.896289
Spine1  3.30795 -1.88876 2.08367
RightShoulder  0.0451882 4.35948 8.65419
RightArm  -39.9684 -28.5078 73.489
RightForeArm  38.0999 11.8335 2.10753
RightHand  0.801474 -13.2411 -6.52383
LeftShoulder1  0.0246468 1.05107 -9.18913
LeftArm  -13.5776 9.09444 -70.9154
LeftForeArm  22.5385 -24.7229 -4.65002
LeftHand  0.17429 4.08109 4.51119
HEad  -8.00706 -12.6986 -0.23379
RightUpLeg  -11.7868 -7.27695 -2.2104
RightLeg  8.67856 4.95764 0.434531
RightFoot  4.30919 0.00172191 0.355889
RightToes  -31.5348 -0.154167 -0.262745
